# xmcd CD database file
#
# Track frame offsets:
#	150
#	30719
#	55813
#	69636
#	96122
#	118401
#	136897
#	151173
#	184293
#	213358
#	227372
#	248981
#	265749
#	282406
#	294274
#	311015
#
# Disc length: 4394 seconds
#
# Revision: 0
# Processed by: cddbd v1.5.2PL0 Copyright (c) Steve Scherf et al.
# Submitted via: CDex 1.70beta2
#
DISCID=e9112810
DTITLE=Kenny G - Classic in the Key of G.
DYEAR=2008
DGENRE=Jazz
TTITLE0=01 (with George Benson) - Summertime
TTITLE1=02 - 02
TTITLE2=03 (with Louis Armstrong) - What a wonderful Day
TTITLE3=04 - 04
TTITLE4=05 In A Sentimental Mood - 05 In A Sentimental Mood
TTITLE5=06 Girl from Ipanema - 06 Girl from Ipanema
TTITLE6=07 - 07
TTITLE7=08 - 08
TTITLE8=09 - 09
TTITLE9=10 Somewhere over the Rainbow - 10 Somewhere over the Rainbow
TTITLE10=11 Girl From Ipanema (Instrumental - 11 Girl From Ipanema (Instrumental)
TTITLE11=12 Dave Koz - Just Saxofone
TTITLE12=13 Somewhere In Time - 13 Somewhere In Time
TTITLE13=14 The Way We Were - 14 The Way We Were
TTITLE14=15 Unchained Melody - 15 Unchained Melody
TTITLE15=16 At Last (Ft. Arturo Sandoval - 16 At Last (Ft. Arturo Sandoval)
EXTD=YEAR: 2008
EXTT0=
EXTT1=
EXTT2=
EXTT3=
EXTT4=
EXTT5=
EXTT6=
EXTT7=
EXTT8=
EXTT9=
EXTT10=
EXTT11=
EXTT12=
EXTT13=
EXTT14=
EXTT15=
PLAYORDER=
